<?xml version="1.0" encoding="utf-8"?>
<!-- Generator: Adobe Illustrator 24.1.3, SVG Export Plug-In . SVG Version: 6.00 Build 0)  -->
<svg version="1.1" id="Layer_1" xmlns="http://www.w3.org/2000/svg" xmlns:xlink="http://www.w3.org/1999/xlink" x="0px" y="0px"
	 viewBox="0 0 540 42" style="enable-background:new 0 0 540 42;" xml:space="preserve">
<style type="text/css">
	.st0{fill:none;}
	.st1{fill:#FFFFFF;}
	.st2{fill:#AC9870;}
	.st3{fill:#AD9970;}
</style>
<rect class="st0" width="540" height="42"/>
<path class="st1" d="M42.7,13.9c0-7.3-7.3-11.8-14-11.8H9.1V41h11.7V22.1l9,18.5l0.1,0.3h13.3L34,24.6C39.4,23,42.7,18.9,42.7,13.9z
	 M20.8,7.7h3.4c3.4-0.2,6.2,2.5,6.4,5.8c0,0.2,0,0.4,0,0.6c0,5.5-3.1,6.5-8.5,6.5h-1.3V7.7z"/>
<polygon class="st1" points="142.6,34.7 142.6,24 155.4,24 155.4,17.8 142.6,17.8 142.6,8.3 156.1,8.3 156.1,2 130.9,2 130.9,40.9 
	156.7,40.9 156.7,34.7 "/>
<path class="st1" d="M107,2H89.8v38.9h19c11.6,0,19.1-7.4,19.1-18.8C127.9,10.5,119.1,2,107,2z M115.8,20.6
	c0,7.2-2.8,14.9-10.9,14.9H101V7.3h3.5C112.3,7.3,115.7,14.1,115.8,20.6L115.8,20.6z"/>
<path class="st1" d="M85.7,4.7l-3.3-3.3l-4,4C74.7,2.6,70.2,1,65.5,1c-11.3-0.1-20.6,9-20.7,20.4c0,4.7,1.6,9.3,4.5,13l-4,4l3.3,3.3
	l4-4c3.7,2.8,8.2,4.3,12.8,4.3c11.2,0.2,20.5-8.8,20.7-20c0-0.1,0-0.3,0-0.4c0-4.7-1.6-9.2-4.4-12.8L85.7,4.7z M65.5,6.1
	c3.6,0,5.7,2.4,6.9,5.3L57.3,26.5c-0.2-1.7-0.3-3.4-0.3-5.1C56.9,16.9,57.8,6.1,65.5,6.1z M73.7,16.7c0.2,1.6,0.3,3.3,0.3,4.9
	c0,4.6-0.8,15.3-8.5,15.3c-3.5,0-5.7-2.3-6.8-5.1L73.7,16.7z"/>
<path class="st1" d="M522.3,1.1h-1.4V0.3h3.8v0.8h-1.4V5h-0.9V1.1z M525.6,0.3h1.4l1.3,3.6l0,0l1.3-3.6h1.4V5H530V1.1l0,0l-1.4,4
	h-0.7l-1.4-4l0,0V5h-0.9L525.6,0.3z"/>
<path class="st2" d="M491.7,0h4.2v41.5h-12.5V8.3C483.4,3.7,487.1,0,491.7,0z"/>
<path class="st2" d="M507,41.5h-4.2V0h12.5v33.1C515.3,37.7,511.6,41.4,507,41.5z"/>
<path class="st1" d="M198.2,34.7c-1.7,2.4-3.9,4.2-6.5,5.5c-2.5,1.1-5.2,1.7-8,1.7c-2.8,0-5.6-0.5-8.2-1.5c-2.4-1-4.6-2.4-6.4-4.3
	c-1.8-1.9-3.2-4.1-4.1-6.5c-1-2.6-1.5-5.4-1.5-8.3c0-2.8,0.5-5.6,1.5-8.2c0.9-2.4,2.3-4.6,4.1-6.5c1.8-1.8,4-3.3,6.4-4.3
	c2.6-1,5.4-1.6,8.2-1.5c2.5,0,5.1,0.5,7.4,1.4c2.4,1,4.5,2.6,6,4.7l-3,2.5c-1.1-1.8-2.8-3.1-4.7-4c-1.8-0.8-3.8-1.3-5.8-1.3
	c-2.4,0-4.7,0.4-6.9,1.3c-1.9,0.8-3.7,2.1-5.2,3.6c-1.5,1.6-2.6,3.4-3.3,5.5c-0.8,2.2-1.2,4.5-1.2,6.8c0,2.3,0.4,4.6,1.2,6.8
	c0.7,2,1.9,3.9,3.3,5.5c1.5,1.6,3.2,2.8,5.2,3.6c2.2,0.9,4.5,1.4,6.9,1.3c2.2,0,4.3-0.5,6.2-1.5c1-0.5,2-1.1,2.9-1.9
	c0.9-0.8,1.8-1.7,2.4-2.7L198.2,34.7z"/>
<path class="st1" d="M216.9,1.7h3.8l16.4,39.1H233l-4.3-10.4h-20.7l-4.4,10.4h-3.8L216.9,1.7z M218.6,5.7l-9.1,21.4h17.9L218.6,5.7z
	"/>
<path class="st1" d="M243.8,33.6c0.9,1.6,2.2,2.8,3.7,3.7c1.6,0.8,3.4,1.3,5.2,1.2c1.2,0,2.3-0.2,3.4-0.6c1-0.3,2-0.9,2.8-1.5
	c0.8-0.7,1.4-1.5,1.9-2.4c0.5-1,0.7-2.1,0.7-3.2c0-1.2-0.3-2.3-0.9-3.4c-0.6-0.9-1.4-1.6-2.3-2.2c-1-0.6-2.1-1.1-3.2-1.5
	c-1.2-0.4-2.4-0.8-3.7-1.2s-2.5-0.9-3.7-1.4c-1.2-0.5-2.3-1.2-3.2-2c-1-0.9-1.8-1.9-2.3-3.1c-0.6-1.5-0.9-3-0.9-4.6
	c0-1.6,0.3-3.2,1-4.6c0.7-1.3,1.6-2.5,2.8-3.4c1.2-0.9,2.6-1.6,4-2c1.5-0.5,3.1-0.7,4.7-0.7c2,0,4.1,0.4,5.9,1.1
	c1.9,0.8,3.5,2.1,4.7,3.8L261.3,8c-0.8-1.2-1.9-2.2-3.2-3c-1.4-0.7-2.9-1-4.4-1c-1.1,0-2.3,0.2-3.4,0.5c-1,0.3-2,0.8-2.8,1.4
	c-0.8,0.6-1.5,1.4-1.9,2.3c-0.5,1-0.7,2.1-0.7,3.3c-0.1,1.6,0.4,3.3,1.5,4.5c1,1.1,2.3,1.9,3.7,2.5c1.6,0.6,3.2,1.2,4.9,1.6
	c1.7,0.4,3.3,1.1,4.9,1.9c1.5,0.8,2.8,1.9,3.7,3.2c1.1,1.7,1.6,3.7,1.5,5.7c0,1.6-0.3,3.2-1,4.7c-0.6,1.3-1.5,2.5-2.7,3.5
	c-1.1,1-2.5,1.7-3.9,2.1c-1.5,0.5-3,0.7-4.6,0.7c-2.4,0-4.9-0.4-7.1-1.3c-2.2-1-4.2-2.5-5.6-4.6L243.8,33.6z"/>
<path class="st1" d="M282.1,5h-13.4V1.7h30.4V5h-13.4v35.8h-3.6L282.1,5z"/>
<path class="st1" d="M305.1,1.7H329V5h-20.3v14h19v3.3h-19v15.2h21.1v3.3h-24.8V1.7z"/>
<path class="st1" d="M335.3,1.7h10.3c0.5,0,1.2,0,2.1,0.1c1,0,1.9,0.1,2.9,0.3c1.1,0.2,2.1,0.5,3.1,0.9c1.1,0.4,2,1,2.9,1.8
	c0.9,0.8,1.6,1.8,2.1,2.9c0.6,1.4,0.9,2.8,0.8,4.3c0,1.6-0.3,3.2-1,4.6c-0.6,1.1-1.4,2.2-2.4,3c-1,0.7-2.1,1.3-3.2,1.7
	c-1.1,0.4-2.2,0.6-3.4,0.8l11.4,18.8h-4.1l-11-18.5H339v18.5h-3.6L335.3,1.7z M339,19h7.7c1.6,0.1,3.2-0.2,4.7-0.7
	c1-0.4,2-1,2.8-1.8c0.6-0.6,1.1-1.4,1.4-2.3c0.2-0.7,0.3-1.5,0.4-2.2c0-0.8-0.1-1.5-0.4-2.2c-0.3-0.8-0.7-1.6-1.4-2.3
	c-0.8-0.8-1.7-1.4-2.8-1.8c-1.5-0.6-3.1-0.8-4.7-0.8H339V19z"/>
<path class="st3" d="M372.8,1.7H384c1.4,0,2.9,0.2,4.3,0.5c1.4,0.3,2.8,0.8,4.1,1.6c1.2,0.8,2.3,1.9,3,3.2c0.8,1.5,1.3,3.3,1.2,5.1
	c0,1.6-0.3,3.2-1,4.6c-0.6,1.2-1.5,2.3-2.6,3.2c-1.1,0.8-2.4,1.5-3.8,1.9c-1.4,0.4-2.9,0.6-4.5,0.6h-8.4v18.5h-3.6L372.8,1.7z
	 M376.4,19h8.3c1,0,2-0.1,3-0.4c0.9-0.2,1.8-0.6,2.6-1.2c0.8-0.6,1.4-1.3,1.9-2.1c0.5-1,0.8-2.1,0.7-3.3c0-1.1-0.2-2.2-0.8-3.2
	c-0.5-0.9-1.1-1.6-1.9-2.2c-0.8-0.6-1.7-1-2.7-1.2c-1-0.3-2-0.4-3.1-0.5h-8.1V19z"/>
<path class="st3" d="M404.5,1.7h10.3c0.5,0,1.2,0,2.1,0.1c1,0,1.9,0.1,2.9,0.3c1.1,0.2,2.1,0.5,3.1,0.9c1.1,0.4,2,1,2.9,1.8
	c0.9,0.8,1.6,1.8,2.1,2.9c0.6,1.4,0.9,2.8,0.8,4.3c0,1.6-0.3,3.2-1,4.6c-0.6,1.1-1.4,2.2-2.4,3c-1,0.7-2,1.3-3.2,1.7
	c-1.1,0.4-2.2,0.6-3.4,0.8L430,40.8h-4.1l-11-18.5h-6.8v18.5h-3.6L404.5,1.7z M408.1,19h7.7c1.6,0.1,3.2-0.2,4.7-0.7
	c1-0.4,2-1,2.8-1.8c0.6-0.6,1.1-1.4,1.4-2.3c0.2-0.7,0.4-1.5,0.4-2.3c0-0.8-0.1-1.5-0.4-2.2c-0.3-0.8-0.7-1.6-1.4-2.3
	c-0.8-0.8-1.7-1.4-2.8-1.8C419,5.2,417.4,5,415.8,5h-7.7V19z"/>
<path class="st3" d="M434.6,21.3c0-2.8,0.5-5.6,1.5-8.2c0.9-2.4,2.3-4.6,4.1-6.5c1.8-1.9,4-3.3,6.4-4.3c5.3-2.1,11.1-2.1,16.4,0
	c2.4,1,4.6,2.4,6.4,4.3c1.8,1.9,3.2,4.1,4.1,6.5c1,2.6,1.5,5.4,1.5,8.2c0,2.8-0.5,5.6-1.5,8.3c-0.9,2.4-2.3,4.6-4.1,6.5
	c-1.8,1.9-4,3.3-6.4,4.3c-5.3,2-11.1,2-16.4,0c-2.4-1-4.5-2.4-6.3-4.3c-1.8-1.9-3.2-4.1-4.1-6.5C435.1,26.9,434.6,24.1,434.6,21.3z
	 M438.3,21.3c0,2.3,0.4,4.6,1.1,6.8c0.7,2,1.9,3.9,3.3,5.5c1.5,1.6,3.3,2.8,5.2,3.6c4.4,1.8,9.3,1.8,13.8,0c2-0.8,3.7-2.1,5.2-3.6
	c1.5-1.6,2.6-3.4,3.3-5.5c0.8-2.2,1.2-4.5,1.2-6.8c0-2.3-0.4-4.6-1.2-6.8c-0.7-2-1.9-3.9-3.4-5.5c-1.5-1.6-3.2-2.8-5.2-3.7
	c-4.4-1.8-9.3-1.8-13.8,0c-2,0.8-3.7,2.1-5.2,3.7c-1.5,1.6-2.6,3.4-3.3,5.5C438.7,16.6,438.3,18.9,438.3,21.3z"/>
</svg>
